<?xml version="1.0" standalone="no"?>
<!DOCTYPE svg PUBLIC "-//W3C//DTD SVG 20010904//EN"
 "http://www.w3.org/TR/2001/REC-SVG-20010904/DTD/svg10.dtd">
<svg version="1.0" xmlns="http://www.w3.org/2000/svg"
 viewBox="0 0"
 >

<g
fill="#000000" stroke="none">
<path d="M6955 7379 c-478 -32 -979 -174 -1509 -427 l-138 -66 -30 33 c-38 43
-35 55 52 201 79 133 84 123 -65 134 -50 4 -108 9 -130 11 -42 5 -262 26 -530
50 -88 8 -180 17 -205 20 -91 10 -381 35 -410 35 -26 0 -30 -5 -41 -42 -63
-237 -59 -394 17 -547 62 -125 207 -253 382 -335 34 -17 61 -33 60 -37 -2 -3
-37 -34 -79 -67 -106 -86 -237 -226 -285 -308 -194 -328 -174 -742 49 -1039
278 -370 763 -483 1177 -275 244 122 417 345 487 628 26 104 23 313 -6 422
-44 166 -118 303 -228 420 -128 136 -286 223 -633 348 -397 142 -503 194 -602
292 -69 69 -98 130 -98 208 0 33 1 34 33 29 17 -3 138 -15 267 -27 129 -12
289 -27 355 -33 l120 -12 7 -66 c22 -230 248 -372 708 -447 157 -26 276 -40
410 -47 58 -4 123 -9 145 -12 22 -3 521 -8 1109 -10 l1069 -5 -5 -66 c-12
-164 -137 -280 -388 -360 -113 -36 -378 -91 -615 -127 -537 -83 -805 -169
-986 -319 -175 -144 -240 -322 -216 -588 l10 -118 1763 0 1763 0 75 -54 c144
-104 320 -158 506 -158 196 1 376 45 566 138 l90 44 562 0 562 0 -5 103 c-12
239 -51 402 -123 513 -76 117 -213 216 -338 245 l-50 12 4 81 c16 316 -159
595 -473 754 -85 42 -282 107 -400 131 -255 51 -304 54 -1218 58 l-857 4 -26
52 c-142 282 -462 491 -885 577 -222 46 -535 65 -774 49z m500 -293 c17 -3 66
-10 110 -16 305 -42 618 -189 726 -341 l22 -31 -1069 5 c-588 3 -1087 7 -1109
11 -22 3 -110 13 -195 21 -254 26 -249 21 -70 92 355 142 716 235 1020 262
101 9 503 7 565 -3z m2935 -687 c506 -50 818 -211 890 -459 10 -36 21 -91 24
-122 7 -74 4 -74 -137 -3 -129 65 -243 138 -358 229 -103 82 -189 127 -304
162 -78 23 -108 27 -220 27 -158 0 -242 -20 -378 -90 -76 -39 -109 -64 -193
-147 -89 -90 -106 -113 -152 -206 -69 -140 -86 -214 -85 -370 0 -105 5 -139
27 -213 14 -48 26 -88 26 -90 0 -1 -684 -2 -1520 -2 -1513 0 -1520 0 -1520 20
0 38 49 125 95 170 25 24 82 63 127 85 147 74 290 108 800 194 534 90 716 145
910 273 169 111 278 311 278 508 l0 45 798 -1 c438 -1 840 -5 892 -10z m-5413
-198 c172 -68 298 -150 369 -239 267 -337 153 -826 -235 -1004 -434 -199 -934
138 -914 617 4 105 24 180 73 274 65 125 186 245 385 381 l87 59 92 -33 c50
-19 114 -43 143 -55z m5436 -266 c81 -21 151 -58 236 -127 149 -120 325 -226
488 -294 l91 -38 -23 -46 c-79 -156 -260 -324 -454 -420 -135 -68 -302 -110
-430 -110 -259 1 -497 178 -550 410 -15 65 -13 177 4 243 48 186 192 332 377
381 70 19 190 20 261 1z m1239 -590 c50 -33 86 -84 114 -161 41 -113 60 -104
-216 -104 l-239 0 53 70 c29 39 74 111 100 160 l47 89 52 -15 c29 -9 69 -26
89 -39z"/>
</g>
</svg>
