<?xml version="1.0" standalone="no"?>
<!DOCTYPE svg PUBLIC "-//W3C//DTD SVG 20010904//EN"
 "http://www.w3.org/TR/2001/REC-SVG-20010904/DTD/svg10.dtd">
<svg version="1.0" xmlns="http://www.w3.org/2000/svg"
 width="100.000000pt" height="80.000000pt" viewBox="0 0 3600.000000 2880.000000"
 preserveAspectRatio="xMidYMid meet">
<metadata>
Created by potrace 1.16, written by Peter Selinger 2001-2019
</metadata>
<g transform="translate(0.000000,2880.000000) scale(0.100000,-0.100000)"
fill="#000000" stroke="none">
<path d="M15745 19163 c-451 -6 -1007 -28 -1460 -58 -549 -37 -1250 -113
-1293 -141 -61 -40 -78 -123 -41 -203 l20 -45 -21 -20 c-11 -12 -199 -178
-417 -371 -421 -371 -424 -374 -460 -496 -14 -45 -17 -128 -20 -509 l-5 -455
-54 -80 c-46 -68 -56 -92 -65 -150 -6 -38 -9 -89 -6 -113 4 -39 0 -52 -34
-105 -63 -97 -69 -131 -69 -378 l0 -217 -43 -21 c-43 -21 -47 -21 -1196 -21
l-1153 0 -34 -34 c-29 -29 -34 -41 -34 -80 0 -57 20 -98 55 -114 20 -9 436
-12 1754 -12 1630 0 1730 1 1752 18 13 9 33 22 44 28 36 20 54 59 70 152 57
342 311 626 645 722 94 27 301 38 392 21 139 -26 265 -79 373 -156 70 -50 177
-159 224 -228 57 -83 111 -212 132 -315 35 -165 37 -171 72 -192 29 -18 52
-20 277 -20 264 0 276 2 314 53 19 26 21 45 27 250 4 186 8 229 24 267 83 200
268 330 469 330 237 -1 441 -170 491 -405 10 -46 15 -130 15 -247 l0 -178 29
-32 29 -33 216 -3 c299 -4 306 0 306 202 0 138 12 202 52 278 60 113 189 201
315 214 199 21 394 -130 433 -336 5 -29 10 -106 10 -171 0 -117 0 -119 29
-151 l29 -33 231 -3 c331 -4 317 -17 323 293 5 238 13 271 91 388 149 221 450
283 672 139 70 -45 139 -118 177 -189 48 -87 58 -149 58 -351 0 -204 8 -240
61 -267 43 -23 1276 -22 1319 0 37 19 55 55 64 125 47 380 357 702 742 770
101 18 297 8 394 -20 346 -99 601 -394 650 -751 6 -46 16 -97 22 -112 23 -61
-93 -57 1795 -57 1550 0 1731 2 1751 16 49 34 66 109 37 164 -33 63 29 60
-1130 60 l-1055 0 0 31 c0 17 14 288 31 603 33 631 34 610 -28 714 -103 171
-295 296 -558 362 -205 52 -1160 217 -2398 414 l-467 75 -183 100 c-517 282
-1324 691 -1636 829 -201 89 -408 167 -492 186 -104 23 -722 51 -1474 66 -448
9 -722 10 -1190 3z m1380 -253 c785 -20 1188 -42 1279 -71 178 -54 517 -209
1046 -475 352 -177 799 -411 960 -502 l65 -37 -130 -5 c-145 -6 -169 -14 -191
-65 -18 -44 -18 -79 1 -115 33 -63 -11 -60 775 -60 l715 0 510 -85 c1261 -208
1440 -246 1592 -331 74 -41 172 -134 192 -181 11 -26 8 -115 -13 -535 -14
-276 -29 -531 -32 -565 l-6 -63 -469 0 c-455 0 -469 1 -469 19 0 34 -58 197
-98 277 -310 612 -1094 813 -1672 429 -231 -154 -415 -425 -474 -697 l-6 -28
-479 0 -478 0 -6 143 c-6 161 -21 226 -77 342 -71 148 -185 261 -335 336 -44
21 -104 45 -132 51 -29 7 -53 15 -53 18 0 3 24 11 53 17 28 7 95 34 147 59 79
40 109 62 180 133 96 97 141 167 182 282 56 160 56 348 0 507 -41 117 -86 186
-183 283 -71 72 -101 94 -180 133 -135 66 -199 81 -349 80 -145 0 -214 -16
-335 -74 -152 -74 -263 -186 -340 -345 -54 -112 -75 -205 -75 -333 0 -288 161
-549 415 -672 44 -22 104 -45 133 -51 28 -7 52 -15 52 -19 0 -4 -24 -12 -53
-19 -127 -28 -299 -142 -383 -254 -107 -143 -151 -274 -161 -484 l-6 -133 -57
0 -58 0 -4 93 c-13 232 -145 432 -351 531 -115 55 -176 69 -296 69 -180 -1
-333 -64 -458 -189 -57 -57 -80 -90 -116 -165 -51 -107 -67 -170 -67 -269 l0
-70 -49 0 -49 0 -4 153 c-4 130 -9 164 -31 232 -36 108 -88 194 -171 282 -119
127 -256 197 -441 226 -11 2 16 11 60 21 44 10 123 38 175 63 81 39 108 59
186 137 78 78 98 106 137 186 59 122 77 198 77 336 0 215 -63 368 -215 519
-146 146 -277 204 -485 212 -106 5 -139 2 -210 -16 -139 -34 -241 -91 -340
-191 -96 -96 -148 -178 -187 -295 -25 -73 -27 -94 -27 -230 0 -136 2 -157 27
-230 85 -254 282 -430 552 -493 l70 -16 -47 -7 c-186 -28 -385 -157 -492 -317
-90 -136 -126 -267 -126 -457 l0 -115 -93 0 -94 0 -22 83 c-31 112 -116 285
-188 382 -418 559 -1258 611 -1748 109 -125 -129 -234 -319 -278 -488 l-22
-86 -368 0 -368 0 3 204 3 205 53 75 52 76 0 112 0 112 54 70 c29 39 58 81 65
93 8 15 11 142 11 417 l0 396 1230 0 c1338 0 1272 -3 1298 55 7 14 12 46 12
70 0 35 -6 52 -29 77 l-29 33 -1218 5 -1217 5 447 393 c246 217 454 405 462
418 11 16 15 40 12 74 -4 59 -29 51 242 80 565 60 1218 101 1875 119 421 12
1311 12 1740 1z m1996 -966 c91 -27 165 -73 233 -145 194 -205 194 -483 0
-689 -130 -137 -311 -191 -489 -145 -243 64 -409 312 -374 560 26 191 184 369
370 419 73 20 193 20 260 0z m-3038 -9 c195 -41 354 -207 387 -406 43 -257
-149 -517 -413 -559 -289 -46 -561 193 -560 491 1 134 51 245 157 347 122 117
270 161 429 127z"/>
<path d="M17368 17830 c-90 -16 -180 -52 -253 -102 -193 -129 -294 -334 -282
-573 9 -168 70 -307 186 -421 120 -119 248 -174 426 -181 201 -9 342 44 481
182 137 135 202 301 191 490 -20 339 -275 594 -610 610 -50 2 -113 0 -139 -5z
m276 -283 c86 -43 150 -108 193 -195 25 -51 28 -68 28 -157 0 -91 -3 -106 -31
-166 -77 -162 -256 -260 -420 -230 -128 24 -243 111 -301 228 -25 53 -28 68
-28 163 0 93 3 112 26 161 71 152 219 243 381 236 65 -3 89 -10 152 -40z"/>
<path d="M7752 15170 c-249 -34 -424 -191 -488 -440 -23 -88 -23 -263 0 -350
75 -279 310 -430 638 -406 145 10 251 54 354 148 l54 50 0 244 0 244 -245 0
-245 0 0 -95 0 -94 143 -3 142 -3 3 -97 3 -96 -33 -25 c-85 -64 -186 -87 -299
-68 -92 15 -145 38 -199 87 -84 76 -120 163 -120 290 0 230 135 392 350 419
95 12 224 -28 300 -92 l33 -27 69 72 68 72 -32 29 c-127 111 -318 165 -496
141z"/>
<path d="M8930 15161 c-193 -27 -337 -125 -422 -287 -53 -101 -71 -180 -72
-309 -1 -126 12 -191 60 -292 87 -183 255 -287 484 -300 356 -21 603 197 627
549 19 298 -148 554 -408 621 -71 19 -200 27 -269 18z m249 -226 c73 -33 142
-103 176 -178 29 -64 48 -174 40 -236 -32 -234 -187 -365 -412 -348 -203 15
-334 169 -335 392 0 196 110 352 279 395 67 17 184 5 252 -25z"/>
<path d="M10224 14928 c65 -188 285 -818 316 -905 11 -31 15 -33 60 -33 l47 0
96 283 c52 155 126 376 163 492 l67 210 161 -490 162 -490 49 -3 50 -3 202
573 201 573 -45 3 c-25 2 -47 1 -49 -1 -2 -2 -79 -224 -170 -492 -91 -268
-170 -500 -176 -514 -9 -23 -32 37 -183 489 l-172 515 -29 0 -29 0 -170 -507
c-94 -278 -173 -509 -176 -512 -3 -3 -83 226 -178 509 l-174 515 -48 0 -48 0
73 -212z"/>
<path d="M11950 14570 l0 -570 45 0 45 0 0 570 0 570 -45 0 -45 0 0 -570z"/>
<path d="M12260 15100 l0 -40 205 0 205 0 0 -530 0 -530 45 0 45 0 0 530 0
530 205 0 205 0 0 40 0 40 -455 0 -455 0 0 -40z"/>
<path d="M13340 14570 l0 -570 45 0 45 0 2 258 3 257 363 3 362 2 0 -260 0
-260 45 0 45 0 0 570 0 570 -45 0 -45 0 0 -270 0 -270 -365 0 -365 0 0 270 0
270 -45 0 -45 0 0 -570z"/>
<path d="M14995 14506 c-45 -20 -67 -50 -72 -99 -6 -54 15 -101 57 -122 26
-13 757 -15 6700 -15 5943 0 6674 2 6700 15 42 22 63 68 57 122 -6 53 -36 89
-86 103 -24 6 -2312 10 -6681 10 -5492 -1 -6650 -3 -6675 -14z"/>
<path d="M8545 13609 c-490 -51 -866 -302 -1074 -717 -198 -395 -215 -941 -41
-1344 114 -264 321 -480 574 -599 363 -170 867 -194 1237 -59 163 59 318 160
467 304 l82 80 0 568 0 568 -575 0 -575 0 0 -225 0 -225 345 0 345 0 0 -234 0
-235 -62 -45 c-192 -136 -410 -191 -657 -167 -247 25 -430 108 -574 260 -125
133 -195 288 -225 498 -34 243 24 515 153 714 117 181 292 311 500 371 71 20
101 23 255 22 160 0 183 -2 265 -27 118 -35 274 -114 352 -177 34 -27 66 -50
70 -50 4 0 77 73 162 161 l154 161 -48 41 c-324 280 -706 400 -1130 356z"/>
<path d="M15220 13609 c-228 -22 -445 -92 -615 -200 -413 -261 -645 -749 -622
-1309 25 -606 328 -1040 848 -1214 173 -58 447 -93 639 -81 373 22 644 135
891 373 l99 94 0 569 0 569 -575 0 -575 0 0 -225 0 -225 345 0 345 0 -2 -237
-3 -238 -85 -57 c-161 -109 -305 -151 -520 -151 -295 1 -516 85 -683 262 -261
277 -308 751 -114 1137 89 176 226 308 411 395 205 96 477 106 711 27 92 -31
224 -103 293 -158 34 -27 66 -50 71 -50 4 0 77 73 162 161 l153 162 -39 34
c-333 287 -700 404 -1135 362z"/>
<path d="M19395 13559 c-605 -81 -1020 -482 -1131 -1092 -23 -125 -24 -408 -1
-532 91 -504 377 -857 822 -1015 252 -89 588 -111 835 -54 164 37 352 117 479
203 85 58 191 150 191 166 0 7 -30 40 -67 73 l-67 60 -58 -52 c-130 -114 -305
-205 -487 -253 -131 -35 -372 -43 -523 -18 -245 40 -434 133 -600 293 -166
161 -273 367 -324 628 -27 132 -24 376 5 512 96 451 384 760 810 868 397 101
799 16 1095 -232 42 -35 79 -64 83 -64 5 1 37 28 73 60 l65 60 -60 57 c-152
144 -394 265 -635 318 -90 20 -400 28 -505 14z"/>
<path d="M11660 12200 l0 -1340 250 0 250 0 0 1340 0 1340 -250 0 -250 0 0
-1340z"/>
<path d="M22740 12218 c-326 -728 -597 -1331 -602 -1340 -8 -17 0 -18 105 -18
l114 0 145 328 144 327 800 2 799 3 146 -328 146 -327 113 -3 c104 -2 112 -1
106 15 -4 10 -273 613 -599 1340 l-592 1323 -116 0 -116 0 -593 -1322z m1063
312 c190 -432 349 -793 353 -802 6 -17 -32 -18 -703 -18 -390 0 -712 2 -715 5
-3 3 155 368 350 811 196 442 359 801 362 797 4 -5 163 -361 353 -793z"/>
<path d="M26560 12200 l0 -1340 100 0 100 0 2 508 3 507 361 3 362 2 463 -507
464 -508 139 -3 c79 -1 136 1 134 6 -1 5 -211 235 -465 511 -255 275 -463 502
-463 504 0 2 39 7 88 10 180 14 353 75 480 172 202 153 312 435 282 723 -14
125 -33 194 -90 308 -87 177 -242 317 -427 384 -161 58 -192 60 -894 60 l-639
0 0 -1340z m1385 1121 c112 -37 185 -81 260 -156 76 -75 130 -166 161 -270 25
-82 25 -283 1 -375 -59 -223 -218 -373 -452 -427 -72 -16 -131 -18 -615 -18
l-535 0 -3 625 c-1 344 0 631 3 638 4 11 110 12 557 10 547 -4 554 -4 623 -27z"/>
</g>
</svg>
