<?xml version="1.0" encoding="UTF-8"?>
<!DOCTYPE svg PUBLIC "-//W3C//DTD SVG 1.1//EN" "http://www.w3.org/Graphics/SVG/1.1/DTD/svg11.dtd">
<svg xmlns="http://www.w3.org/2000/svg" version="1.1" style="shape-rendering:geometricPrecision; text-rendering:geometricPrecision; image-rendering:optimizeQuality; fill-rule:evenodd; clip-rule:evenodd" xmlns:xlink="http://www.w3.org/1999/xlink">
<g><path style="opacity:1" fill="#fffefe" d="M -0.5,-0.5 C 666.167,-0.5 1332.83,-0.5 1999.5,-0.5C 1999.5,499.5 1999.5,999.5 1999.5,1499.5C 1332.83,1499.5 666.167,1499.5 -0.5,1499.5C -0.5,999.5 -0.5,499.5 -0.5,-0.5 Z"/></g>
<g><path style="opacity:1" fill="#faba46" d="M 1501.5,685.5 C 1523.63,684.625 1545.63,685.792 1567.5,689C 1592.44,696.201 1615.78,706.867 1637.5,721C 1661.97,720.798 1686.3,722.798 1710.5,727C 1715.98,728.604 1721.31,730.604 1726.5,733C 1731.3,738.758 1736.8,744.591 1743,750.5C 1743.78,758.965 1742.11,766.965 1738,774.5C 1734.85,777.782 1731.01,779.948 1726.5,781C 1716.56,782.659 1706.56,783.492 1696.5,783.5C 1696.09,751.909 1680.42,738.742 1649.5,744C 1638.04,748.739 1631.21,757.239 1629,769.5C 1628.5,775.157 1628.33,780.824 1628.5,786.5C 1623.83,786.333 1619.16,785.999 1614.5,785.5C 1565.52,788.299 1516.52,790.799 1467.5,793C 1465.47,794.879 1463.14,796.046 1460.5,796.5C 1461.7,764.524 1446.7,751.358 1415.5,757C 1405.73,761.015 1399.57,768.182 1397,778.5C 1395.93,784.455 1395.43,790.455 1395.5,796.5C 1385.56,795.056 1375.56,794.222 1365.5,794C 1358.22,792.348 1351.06,790.515 1344,788.5C 1339.75,781.778 1338.42,774.445 1340,766.5C 1341.76,763.732 1344.26,762.232 1347.5,762C 1346.3,761.097 1345.47,759.931 1345,758.5C 1343.77,749.525 1344.77,740.859 1348,732.5C 1348.5,732 1349,731.5 1349.5,731C 1360.13,729.117 1370.8,727.45 1381.5,726C 1418.48,703.175 1458.48,689.675 1501.5,685.5 Z"/></g>
<g><path style="opacity:1" fill="#fffefc" d="M 1497.5,691.5 C 1502.5,691.5 1507.5,691.5 1512.5,691.5C 1514.3,703.451 1515.64,715.451 1516.5,727.5C 1494.49,728.013 1472.49,728.68 1450.5,729.5C 1450.18,720.249 1450.52,711.083 1451.5,702C 1466.59,696.881 1481.93,693.381 1497.5,691.5 Z"/></g>
<g><path style="opacity:1" fill="#fffefd" d="M 1517.5,690.5 C 1545.6,688.085 1571.6,694.252 1595.5,709C 1602.89,713.69 1609.89,718.857 1616.5,724.5C 1586.52,726.075 1556.52,726.742 1526.5,726.5C 1523.5,714.5 1520.5,702.5 1517.5,690.5 Z"/></g>
<g><path style="opacity:1" fill="#f9bb48" d="M 1311.5,693.5 C 1314.19,694.024 1315.69,695.691 1316,698.5C 1316.67,732.5 1316.67,766.5 1316,800.5C 1315.31,802.555 1314.15,804.221 1312.5,805.5C 1310.28,802.209 1309.11,798.543 1309,794.5C 1308.33,763.167 1308.33,731.833 1309,700.5C 1309.85,698.146 1310.68,695.812 1311.5,693.5 Z"/></g>
<g><path style="opacity:1" fill="#fabb48" d="M 329.5,705.5 C 334.167,705.5 338.833,705.5 343.5,705.5C 343.5,714.833 343.5,724.167 343.5,733.5C 339.822,734.586 336.155,734.586 332.5,733.5C 323.237,719.094 310.237,713.928 293.5,718C 276.735,726.368 270.235,739.868 274,758.5C 280.534,777.194 293.701,784.694 313.5,781C 318.522,779.986 323.189,778.152 327.5,775.5C 328.494,770.544 328.827,765.544 328.5,760.5C 319.833,760.5 311.167,760.5 302.5,760.5C 302.5,756.167 302.5,751.833 302.5,747.5C 316.5,747.5 330.5,747.5 344.5,747.5C 344.667,759.171 344.5,770.838 344,782.5C 325.948,795.723 306.115,799.223 284.5,793C 261.216,782.272 251.716,764.105 256,738.5C 265.841,708.691 286.008,697.858 316.5,706C 320.899,707.906 324.899,710.406 328.5,713.5C 329.48,710.914 329.813,708.247 329.5,705.5 Z"/></g>
<g><path style="opacity:1" fill="#faba48" d="M 395.5,703.5 C 417.296,700.474 434.462,707.807 447,725.5C 457.856,747.017 455.023,766.517 438.5,784C 425.561,794.235 410.895,797.901 394.5,795C 366.869,786.26 355.035,767.427 359,738.5C 364.431,719.719 376.597,708.052 395.5,703.5 Z"/></g>
<g><path style="opacity:1" fill="#faba48" d="M 1049.5,713.5 C 1050.47,711.052 1050.81,708.385 1050.5,705.5C 1055.17,705.5 1059.83,705.5 1064.5,705.5C 1064.5,714.833 1064.5,724.167 1064.5,733.5C 1060.76,734.079 1057.1,734.079 1053.5,733.5C 1042.38,717.627 1027.71,713.127 1009.5,720C 992.512,733.129 989.012,749.295 999,768.5C 1008.22,780.671 1020.39,784.838 1035.5,781C 1040.47,779.763 1044.97,777.596 1049,774.5C 1049.5,769.845 1049.67,765.179 1049.5,760.5C 1041.02,759.507 1032.35,759.174 1023.5,759.5C 1023.5,755.5 1023.5,751.5 1023.5,747.5C 1037.5,747.5 1051.5,747.5 1065.5,747.5C 1065.83,759.186 1065.5,770.852 1064.5,782.5C 1045.51,796.1 1024.84,799.267 1002.5,792C 979.373,778.899 971.206,759.399 978,733.5C 990.472,706.183 1010.97,697.35 1039.5,707C 1043.03,708.928 1046.37,711.095 1049.5,713.5 Z"/></g>
<g><path style="opacity:1" fill="#fabb48" d="M 1208.5,712.5 C 1208.56,713.043 1208.89,713.376 1209.5,713.5C 1210.48,710.914 1210.81,708.247 1210.5,705.5C 1215.17,705.5 1219.83,705.5 1224.5,705.5C 1224.5,714.833 1224.5,724.167 1224.5,733.5C 1221.45,733.364 1218.45,733.698 1215.5,734.5C 1211.37,729.537 1206.7,725.037 1201.5,721C 1184,712.501 1169.5,716.001 1158,731.5C 1156.44,733.957 1155.44,736.624 1155,739.5C 1152.46,773.82 1167.96,786.986 1201.5,779C 1203.83,777.833 1206.17,776.667 1208.5,775.5C 1209.49,770.544 1209.83,765.544 1209.5,760.5C 1200.83,760.5 1192.17,760.5 1183.5,760.5C 1183.5,756.167 1183.5,751.833 1183.5,747.5C 1197.5,747.5 1211.5,747.5 1225.5,747.5C 1225.83,759.186 1225.5,770.852 1224.5,782.5C 1209.31,793.724 1192.31,797.891 1173.5,795C 1154.23,791.062 1142.06,779.562 1137,760.5C 1132.76,732.804 1143.59,713.971 1169.5,704C 1183.82,701.333 1196.82,704.166 1208.5,712.5 Z"/></g>
<g><path style="opacity:1" fill="#fbd185" d="M 543.5,705.5 C 528.5,705.5 513.5,705.5 498.5,705.5C 498.5,709.833 498.5,714.167 498.5,718.5C 497.514,714.03 497.181,709.363 497.5,704.5C 513.009,704.17 528.342,704.504 543.5,705.5 Z"/></g>
<g><path style="opacity:1" fill="#fbd082" d="M 650.5,705.5 C 635.833,705.5 621.167,705.5 606.5,705.5C 606.5,709.833 606.5,714.167 606.5,718.5C 605.514,714.03 605.181,709.363 605.5,704.5C 620.676,704.171 635.676,704.504 650.5,705.5 Z"/></g>
<g><path style="opacity:1" fill="#fbd286" d="M 655.5,705.5 C 671.658,704.504 687.991,704.17 704.5,704.5C 704.819,709.363 704.486,714.03 703.5,718.5C 703.5,714.167 703.5,709.833 703.5,705.5C 687.5,705.5 671.5,705.5 655.5,705.5 Z"/></g>
<g><path style="opacity:1" fill="#fbd183" d="M 878.5,705.5 C 894.658,704.504 910.991,704.17 927.5,704.5C 927.819,709.363 927.486,714.03 926.5,718.5C 926.5,714.167 926.5,709.833 926.5,705.5C 910.5,705.5 894.5,705.5 878.5,705.5 Z"/></g>
<g><path style="opacity:1" fill="#fbd48c" d="M 1078.5,705.5 C 1094.66,704.504 1110.99,704.17 1127.5,704.5C 1127.82,709.363 1127.49,714.03 1126.5,718.5C 1126.5,714.167 1126.5,709.833 1126.5,705.5C 1110.5,705.5 1094.5,705.5 1078.5,705.5 Z"/></g>
<g><path style="opacity:1" fill="#faca72" d="M 329.5,705.5 C 334.305,704.513 339.305,704.179 344.5,704.5C 344.827,714.348 344.494,724.014 343.5,733.5C 343.5,724.167 343.5,714.833 343.5,705.5C 338.833,705.5 334.167,705.5 329.5,705.5 Z"/></g>
<g><path style="opacity:1" fill="#faba47" d="M 543.5,705.5 C 543.5,709.833 543.5,714.167 543.5,718.5C 538.821,718.334 534.155,718.501 529.5,719C 535.009,734.861 540.509,750.694 546,766.5C 553.944,746.945 561.611,727.278 569,707.5C 572.455,706.209 575.955,706.209 579.5,707.5C 588.097,727.459 596.597,747.459 605,767.5C 610.144,751.237 614.977,734.904 619.5,718.5C 615.167,718.5 610.833,718.5 606.5,718.5C 606.5,714.167 606.5,709.833 606.5,705.5C 621.167,705.5 635.833,705.5 650.5,705.5C 650.5,709.833 650.5,714.167 650.5,718.5C 645.786,718.173 641.12,718.507 636.5,719.5C 627.095,744.717 618.095,770.05 609.5,795.5C 606.102,795.82 602.768,795.487 599.5,794.5C 591.143,774.921 582.31,755.588 573,736.5C 564.736,755.793 556.569,775.126 548.5,794.5C 545.554,795.655 542.554,795.821 539.5,795C 530.142,769.927 520.975,744.76 512,719.5C 507.599,718.533 503.099,718.2 498.5,718.5C 498.5,714.167 498.5,709.833 498.5,705.5C 513.5,705.5 528.5,705.5 543.5,705.5 Z"/></g>
<g><path style="opacity:1" fill="#fabb48" d="M 655.5,705.5 C 671.5,705.5 687.5,705.5 703.5,705.5C 703.5,709.833 703.5,714.167 703.5,718.5C 698.5,718.5 693.5,718.5 688.5,718.5C 688.5,739.167 688.5,759.833 688.5,780.5C 693.5,780.5 698.5,780.5 703.5,780.5C 703.5,784.833 703.5,789.167 703.5,793.5C 687.5,793.5 671.5,793.5 655.5,793.5C 655.5,789.167 655.5,784.833 655.5,780.5C 660.5,780.5 665.5,780.5 670.5,780.5C 670.5,759.833 670.5,739.167 670.5,718.5C 665.5,718.5 660.5,718.5 655.5,718.5C 655.5,714.167 655.5,709.833 655.5,705.5 Z"/></g>
<g><path style="opacity:1" fill="#fabb49" d="M 783.5,780.5 C 783.5,784.833 783.5,789.167 783.5,793.5C 767.5,793.5 751.5,793.5 735.5,793.5C 735.5,789.167 735.5,784.833 735.5,780.5C 740.5,780.5 745.5,780.5 750.5,780.5C 750.5,759.833 750.5,739.167 750.5,718.5C 742.833,718.5 735.167,718.5 727.5,718.5C 727.5,724.5 727.5,730.5 727.5,736.5C 722.5,736.5 717.5,736.5 712.5,736.5C 712.5,725.833 712.5,715.167 712.5,704.5C 743.833,704.5 775.167,704.5 806.5,704.5C 806.5,715.167 806.5,725.833 806.5,736.5C 801.5,736.5 796.5,736.5 791.5,736.5C 791.5,730.5 791.5,724.5 791.5,718.5C 783.833,718.5 776.167,718.5 768.5,718.5C 768.5,739.167 768.5,759.833 768.5,780.5C 773.5,780.5 778.5,780.5 783.5,780.5 Z"/></g>
<g><path style="opacity:1" fill="#faba47" d="M 848.5,741.5 C 863.658,742.496 878.991,742.83 894.5,742.5C 894.826,734.316 894.492,726.316 893.5,718.5C 888.5,718.5 883.5,718.5 878.5,718.5C 878.5,714.167 878.5,709.833 878.5,705.5C 894.5,705.5 910.5,705.5 926.5,705.5C 926.5,709.833 926.5,714.167 926.5,718.5C 921.5,718.5 916.5,718.5 911.5,718.5C 911.5,739.167 911.5,759.833 911.5,780.5C 916.5,780.5 921.5,780.5 926.5,780.5C 926.5,784.833 926.5,789.167 926.5,793.5C 910.5,793.5 894.5,793.5 878.5,793.5C 878.5,789.167 878.5,784.833 878.5,780.5C 883.5,780.5 888.5,780.5 893.5,780.5C 894.493,772.016 894.826,763.349 894.5,754.5C 878.991,754.17 863.658,754.504 848.5,755.5C 848.5,763.833 848.5,772.167 848.5,780.5C 853.5,780.5 858.5,780.5 863.5,780.5C 863.5,785.167 863.5,789.833 863.5,794.5C 847.5,794.5 831.5,794.5 815.5,794.5C 815.5,789.833 815.5,785.167 815.5,780.5C 820.5,780.5 825.5,780.5 830.5,780.5C 830.5,759.833 830.5,739.167 830.5,718.5C 825.5,718.5 820.5,718.5 815.5,718.5C 815.5,713.833 815.5,709.167 815.5,704.5C 831.5,704.5 847.5,704.5 863.5,704.5C 863.5,709.167 863.5,713.833 863.5,718.5C 858.5,718.5 853.5,718.5 848.5,718.5C 848.5,726.167 848.5,733.833 848.5,741.5 Z"/></g>
<g><path style="opacity:1" fill="#fbd99a" d="M 1064.5,733.5 C 1064.5,724.167 1064.5,714.833 1064.5,705.5C 1059.83,705.5 1055.17,705.5 1050.5,705.5C 1050.81,708.385 1050.47,711.052 1049.5,713.5C 1049.5,710.5 1049.5,707.5 1049.5,704.5C 1054.83,704.5 1060.17,704.5 1065.5,704.5C 1065.83,714.348 1065.49,724.014 1064.5,733.5 Z"/></g>
<g><path style="opacity:1" fill="#fabb48" d="M 1078.5,705.5 C 1094.5,705.5 1110.5,705.5 1126.5,705.5C 1126.5,709.833 1126.5,714.167 1126.5,718.5C 1121.5,718.5 1116.5,718.5 1111.5,718.5C 1111.5,739.167 1111.5,759.833 1111.5,780.5C 1116.5,780.5 1121.5,780.5 1126.5,780.5C 1126.5,784.833 1126.5,789.167 1126.5,793.5C 1110.5,793.5 1094.5,793.5 1078.5,793.5C 1078.5,789.167 1078.5,784.833 1078.5,780.5C 1083.5,780.5 1088.5,780.5 1093.5,780.5C 1093.5,759.833 1093.5,739.167 1093.5,718.5C 1088.5,718.5 1083.5,718.5 1078.5,718.5C 1078.5,714.167 1078.5,709.833 1078.5,705.5 Z"/></g>
<g><path style="opacity:1" fill="#fbd287" d="M 1224.5,733.5 C 1224.5,724.167 1224.5,714.833 1224.5,705.5C 1219.83,705.5 1215.17,705.5 1210.5,705.5C 1210.81,708.247 1210.48,710.914 1209.5,713.5C 1208.89,713.376 1208.56,713.043 1208.5,712.5C 1209.47,710.052 1209.81,707.385 1209.5,704.5C 1214.83,704.5 1220.17,704.5 1225.5,704.5C 1225.83,714.348 1225.49,724.014 1224.5,733.5 Z"/></g>
<g><path style="opacity:1" fill="#fffdfb" d="M 1440.5,705.5 C 1441.83,705.5 1443.17,705.5 1444.5,705.5C 1444.67,713.507 1444.5,721.507 1444,729.5C 1436.25,730.647 1428.41,730.814 1420.5,730C 1418.79,726.34 1418.29,722.507 1419,718.5C 1419.93,716.448 1421.43,714.948 1423.5,714C 1429.26,711.121 1434.93,708.287 1440.5,705.5 Z"/></g>
<g><path style="opacity:1" fill="#fffefd" d="M 397.5,717.5 C 415.838,714.747 428.005,722.08 434,739.5C 437.532,753.811 434.032,765.978 423.5,776C 412.894,782.517 401.894,783.184 390.5,778C 383.66,773.163 379.16,766.663 377,758.5C 373.289,739.254 380.122,725.587 397.5,717.5 Z"/></g>
<g><path style="opacity:1" fill="#fcebc9" d="M 893.5,718.5 C 894.492,726.316 894.826,734.316 894.5,742.5C 878.991,742.83 863.658,742.496 848.5,741.5C 863.5,741.5 878.5,741.5 893.5,741.5C 893.5,733.833 893.5,726.167 893.5,718.5 Z"/></g>
<g><path style="opacity:1" fill="#faba46" d="M 1655.5,745.5 C 1680.06,744.559 1691.56,756.226 1690,780.5C 1687.19,791.307 1680.36,798.14 1669.5,801C 1651.59,803.736 1639.75,796.569 1634,779.5C 1632.31,762.534 1639.48,751.201 1655.5,745.5 Z"/></g>
<g><path style="opacity:1" fill="#fce0ae" d="M 848.5,755.5 C 863.658,754.504 878.991,754.17 894.5,754.5C 894.826,763.349 894.493,772.016 893.5,780.5C 893.5,772.167 893.5,763.833 893.5,755.5C 878.5,755.5 863.5,755.5 848.5,755.5 Z"/></g>
<g><path style="opacity:1" fill="#faba46" d="M 1420.5,757.5 C 1445.21,756.373 1457.04,768.04 1456,792.5C 1449.83,808.977 1438,815.81 1420.5,813C 1401.74,805.305 1395.57,791.805 1402,772.5C 1406.59,765.394 1412.76,760.394 1420.5,757.5 Z"/></g>
<g><path style="opacity:1" fill="#fbdca5" d="M 1023.5,747.5 C 1023.5,751.5 1023.5,755.5 1023.5,759.5C 1032.35,759.174 1041.02,759.507 1049.5,760.5C 1040.5,760.5 1031.5,760.5 1022.5,760.5C 1022.18,755.968 1022.52,751.634 1023.5,747.5 Z"/></g>
<g><path style="opacity:1" fill="#fce1b1" d="M 1245.5,774.5 C 1250.98,773.511 1256.64,773.178 1262.5,773.5C 1262.77,775.099 1262.43,776.432 1261.5,777.5C 1261.5,776.5 1261.5,775.5 1261.5,774.5C 1256.17,774.5 1250.83,774.5 1245.5,774.5 Z"/></g>
<g><path style="opacity:1" fill="#faba45" d="M 1245.5,774.5 C 1250.83,774.5 1256.17,774.5 1261.5,774.5C 1261.5,775.5 1261.5,776.5 1261.5,777.5C 1259.83,777.5 1258.17,777.5 1256.5,777.5C 1255.51,782.64 1255.18,787.974 1255.5,793.5C 1254.5,793.5 1253.5,793.5 1252.5,793.5C 1252.82,787.974 1252.49,782.64 1251.5,777.5C 1249.5,777.5 1247.5,777.5 1245.5,777.5C 1245.5,776.5 1245.5,775.5 1245.5,774.5 Z"/></g>
<g><path style="opacity:1" fill="#fbd795" d="M 1270.5,774.5 C 1268.83,774.5 1267.17,774.5 1265.5,774.5C 1265.5,780.833 1265.5,787.167 1265.5,793.5C 1266.5,793.5 1267.5,793.5 1268.5,793.5C 1268.33,789.486 1268.5,785.486 1269,781.5C 1269.72,782.044 1270.22,782.711 1270.5,783.5C 1269.52,786.962 1269.19,790.629 1269.5,794.5C 1267.83,794.5 1266.17,794.5 1264.5,794.5C 1264.5,787.5 1264.5,780.5 1264.5,773.5C 1266.74,773.205 1268.74,773.539 1270.5,774.5 Z"/></g>
<g><path style="opacity:1" fill="#fabb4b" d="M 1270.5,774.5 C 1271.85,779.047 1273.68,783.381 1276,787.5C 1277.81,783.244 1279.31,778.911 1280.5,774.5C 1282.5,774.5 1284.5,774.5 1286.5,774.5C 1286.5,781.167 1286.5,787.833 1286.5,794.5C 1285.17,794.5 1283.83,794.5 1282.5,794.5C 1282.67,790.154 1282.5,785.821 1282,781.5C 1280.19,785.756 1278.69,790.089 1277.5,794.5C 1276.18,794.67 1275.01,794.337 1274,793.5C 1272.54,790.252 1271.37,786.919 1270.5,783.5C 1270.22,782.711 1269.72,782.044 1269,781.5C 1268.5,785.486 1268.33,789.486 1268.5,793.5C 1267.5,793.5 1266.5,793.5 1265.5,793.5C 1265.5,787.167 1265.5,780.833 1265.5,774.5C 1267.17,774.5 1268.83,774.5 1270.5,774.5 Z"/></g>
<g><path style="opacity:1" fill="#fbd796" d="M 1251.5,777.5 C 1252.49,782.64 1252.82,787.974 1252.5,793.5C 1253.5,793.5 1254.5,793.5 1255.5,793.5C 1255.18,787.974 1255.51,782.64 1256.5,777.5C 1256.5,783.167 1256.5,788.833 1256.5,794.5C 1254.83,794.5 1253.17,794.5 1251.5,794.5C 1251.5,788.833 1251.5,783.167 1251.5,777.5 Z"/></g>
<g><path style="opacity:1" fill="#fbd286" d="M 703.5,780.5 C 704.486,784.97 704.819,789.637 704.5,794.5C 687.991,794.83 671.658,794.496 655.5,793.5C 671.5,793.5 687.5,793.5 703.5,793.5C 703.5,789.167 703.5,784.833 703.5,780.5 Z"/></g>
<g><path style="opacity:1" fill="#fbd38a" d="M 783.5,780.5 C 784.486,784.97 784.819,789.637 784.5,794.5C 767.991,794.83 751.658,794.496 735.5,793.5C 751.5,793.5 767.5,793.5 783.5,793.5C 783.5,789.167 783.5,784.833 783.5,780.5 Z"/></g>
<g><path style="opacity:1" fill="#fbd183" d="M 926.5,780.5 C 927.486,784.97 927.819,789.637 927.5,794.5C 910.991,794.83 894.658,794.496 878.5,793.5C 894.5,793.5 910.5,793.5 926.5,793.5C 926.5,789.167 926.5,784.833 926.5,780.5 Z"/></g>
<g><path style="opacity:1" fill="#fbd48c" d="M 1126.5,780.5 C 1127.49,784.97 1127.82,789.637 1127.5,794.5C 1110.99,794.83 1094.66,794.496 1078.5,793.5C 1094.5,793.5 1110.5,793.5 1126.5,793.5C 1126.5,789.167 1126.5,784.833 1126.5,780.5 Z"/></g>
</svg>
