<svg id="svg" version="1.1" xmlns="http://www.w3.org/2000/svg" xmlns:xlink="http://www.w3.org/1999/xlink" width="400" height="300" viewBox="0, 0, 400,300"><g id="svgg"><path id="path0" d="M0.000 150.000 L 0.000 300.000 200.000 300.000 L 400.000 300.000 400.000 150.000 L 400.000 0.000 200.000 0.000 L 0.000 0.000 0.000 150.000 M313.500 137.780 C 316.656 138.506,322.167 140.907,326.400 143.400 C 327.811 144.231,327.978 144.280,329.200 144.228 C 336.822 143.905,344.357 145.477,346.468 147.830 C 346.996 148.419,347.489 148.967,347.564 149.048 C 347.639 149.130,347.993 149.430,348.350 149.716 C 349.015 150.248,349.310 151.985,348.824 152.510 C 348.727 152.614,348.537 153.060,348.400 153.500 C 347.649 155.918,346.038 156.664,341.201 156.833 L 339.302 156.900 339.154 155.400 C 338.716 150.947,336.420 148.600,332.501 148.600 C 328.531 148.600,325.978 151.333,325.932 155.631 L 325.913 157.363 323.607 157.369 C 318.629 157.383,293.773 158.804,293.184 159.108 C 292.312 159.559,292.267 159.504,292.138 157.831 C 291.814 153.629,289.482 151.200,285.772 151.200 C 281.696 151.200,279.211 154.103,279.202 158.873 C 279.200 159.583,279.163 159.635,278.750 159.508 C 278.502 159.432,277.008 159.250,275.429 159.104 C 272.588 158.841,270.158 158.382,269.210 157.930 C 267.555 157.140,267.318 153.079,268.904 152.681 C 269.451 152.544,269.515 152.395,269.174 152.054 C 268.871 151.751,269.053 147.689,269.402 146.954 C 269.714 146.295,269.592 146.334,273.251 145.720 C 276.135 145.236,276.270 145.190,279.163 143.725 C 287.351 139.578,292.266 138.032,299.500 137.329 C 302.456 137.042,311.568 137.335,313.500 137.780 M304.440 138.348 C 303.742 138.410,303.601 138.487,303.687 138.762 C 303.745 138.948,304.068 140.090,304.404 141.300 C 304.739 142.510,305.153 143.928,305.323 144.450 L 305.632 145.400 308.083 145.400 C 313.358 145.400,323.200 145.127,323.200 144.981 C 323.200 144.381,316.483 140.267,314.218 139.479 C 311.890 138.670,307.090 138.114,304.440 138.348 M299.400 138.626 C 297.055 138.864,293.819 139.499,291.850 140.106 L 290.200 140.615 290.200 143.335 L 290.200 146.055 291.450 145.933 C 292.137 145.866,295.108 145.750,298.050 145.675 C 302.760 145.555,303.400 145.500,303.398 145.219 C 303.397 145.044,303.172 143.475,302.898 141.733 C 302.624 139.992,302.400 138.529,302.400 138.483 C 302.400 138.372,301.458 138.417,299.400 138.626 M263.226 139.450 C 263.446 139.971,263.500 142.062,263.500 150.000 C 263.500 160.270,263.431 161.200,262.666 161.200 C 261.875 161.200,261.800 160.231,261.800 150.000 C 261.800 141.883,261.850 140.067,262.090 139.494 C 262.453 138.624,262.871 138.608,263.226 139.450 M63.219 141.187 C 63.825 141.414,64.632 141.829,65.011 142.110 L 65.700 142.620 65.761 141.810 L 65.823 141.000 67.411 141.000 L 69.000 141.000 69.000 144.000 L 69.000 147.000 67.827 147.000 C 66.698 147.000,66.635 146.972,66.132 146.250 C 63.399 142.327,57.412 142.746,55.417 146.999 C 52.797 152.583,58.155 158.159,63.997 155.927 C 65.714 155.271,65.800 155.160,65.800 153.595 L 65.800 152.200 63.200 152.200 L 60.600 152.200 60.600 150.800 L 60.600 149.400 64.800 149.400 L 69.000 149.400 69.000 152.990 L 69.000 156.580 68.345 157.079 C 63.086 161.090,54.553 159.650,52.010 154.322 C 48.349 146.649,55.481 138.292,63.219 141.187 M83.222 140.804 C 90.557 142.195,93.319 151.062,88.128 156.556 C 83.795 161.143,75.242 159.823,72.601 154.160 C 69.218 146.909,75.271 139.296,83.222 140.804 M207.271 141.170 C 207.915 141.398,208.741 141.813,209.108 142.092 C 209.973 142.752,210.000 142.743,210.000 141.800 L 210.000 141.000 211.605 141.000 L 213.211 141.000 213.155 143.950 L 213.100 146.900 212.061 146.960 L 211.022 147.020 209.661 145.642 C 205.416 141.344,199.000 143.897,199.000 149.885 C 199.000 155.134,203.748 157.947,208.700 155.629 L 210.000 155.021 210.000 153.611 L 210.000 152.200 207.300 152.200 L 204.600 152.200 204.600 150.800 L 204.600 149.400 208.900 149.400 L 213.200 149.400 213.200 153.004 L 213.200 156.609 211.966 157.407 C 206.577 160.889,198.790 159.514,196.322 154.644 C 192.379 146.862,199.298 138.346,207.271 141.170 M239.326 141.153 C 239.873 141.361,240.675 141.773,241.110 142.070 L 241.900 142.608 241.961 141.804 L 242.023 141.000 243.617 141.000 L 245.211 141.000 245.155 143.950 L 245.100 146.900 244.045 146.961 C 242.993 147.021,242.987 147.018,241.968 145.903 C 237.585 141.108,230.661 143.946,231.042 150.383 C 231.306 154.838,234.858 157.279,239.388 156.119 C 241.668 155.535,242.000 155.213,242.000 153.589 L 242.000 152.212 239.350 152.156 L 236.700 152.100 236.700 150.800 L 236.700 149.500 240.950 149.446 L 245.200 149.392 245.200 152.986 L 245.200 156.580 244.536 157.086 C 239.293 161.085,230.813 159.663,228.213 154.349 C 224.499 146.757,231.668 138.244,239.326 141.153 M108.959 142.450 L 109.018 143.800 107.609 143.800 C 105.880 143.800,105.868 143.305,107.725 148.874 L 109.249 153.448 111.580 147.474 L 113.911 141.500 114.995 141.500 L 116.079 141.500 118.506 147.350 C 119.841 150.567,120.975 153.242,121.027 153.294 C 121.098 153.365,123.337 146.361,123.950 144.150 C 124.035 143.840,123.882 143.800,122.623 143.800 L 121.200 143.800 121.200 142.400 L 121.200 141.000 125.700 141.000 L 130.200 141.000 130.200 142.391 L 130.200 143.782 128.855 143.841 L 127.510 143.900 125.893 148.400 C 125.004 150.875,123.754 154.363,123.115 156.150 L 121.953 159.400 121.026 159.398 L 120.100 159.396 117.421 153.391 L 114.742 147.386 113.067 151.443 C 112.146 153.674,111.022 156.382,110.570 157.460 L 109.748 159.420 108.837 159.360 L 107.926 159.300 105.113 151.551 L 102.300 143.802 100.950 143.801 L 99.600 143.800 99.600 142.396 L 99.600 140.993 104.250 141.046 L 108.900 141.100 108.959 142.450 M141.000 142.400 L 141.000 143.800 139.400 143.800 L 137.800 143.800 137.800 150.000 L 137.800 156.200 139.400 156.200 L 141.000 156.200 141.000 157.600 L 141.000 159.000 136.000 159.000 L 131.000 159.000 131.000 157.600 L 131.000 156.200 132.600 156.200 L 134.200 156.200 134.200 150.000 L 134.200 143.800 132.600 143.800 L 131.000 143.800 131.000 142.400 L 131.000 141.000 136.000 141.000 L 141.000 141.000 141.000 142.400 M161.400 144.308 L 161.400 147.617 159.850 147.558 L 158.300 147.500 158.242 145.650 L 158.185 143.800 155.992 143.800 L 153.800 143.800 153.800 150.000 L 153.800 156.200 155.400 156.200 L 157.000 156.200 157.000 157.600 L 157.000 159.000 152.000 159.000 L 147.000 159.000 147.000 157.600 L 147.000 156.200 148.600 156.200 L 150.200 156.200 150.200 150.000 L 150.200 143.800 148.008 143.800 L 145.815 143.800 145.758 145.650 L 145.700 147.500 144.150 147.558 L 142.600 147.617 142.600 144.308 L 142.600 141.000 152.000 141.000 L 161.400 141.000 161.400 144.308 M173.000 142.400 L 173.000 143.800 171.400 143.800 L 169.800 143.800 169.800 146.100 L 169.800 148.400 174.300 148.400 L 178.800 148.400 178.800 146.100 L 178.800 143.800 177.300 143.800 L 175.800 143.800 175.800 142.400 L 175.800 141.000 180.700 141.000 L 185.600 141.000 185.600 142.400 L 185.600 143.800 184.000 143.800 L 182.400 143.800 182.400 150.000 L 182.400 156.200 184.000 156.200 L 185.600 156.200 185.600 157.600 L 185.600 159.000 180.700 159.000 L 175.800 159.000 175.800 157.600 L 175.800 156.200 177.300 156.200 L 178.800 156.200 178.800 153.700 L 178.800 151.200 174.300 151.200 L 169.800 151.200 169.800 153.700 L 169.800 156.200 171.400 156.200 L 173.000 156.200 173.000 157.600 L 173.000 159.000 168.000 159.000 L 163.000 159.000 163.000 157.600 L 163.000 156.200 164.600 156.200 L 166.200 156.200 166.200 150.000 L 166.200 143.800 164.600 143.800 L 163.000 143.800 163.000 142.400 L 163.000 141.000 168.000 141.000 L 173.000 141.000 173.000 142.400 M225.600 142.400 L 225.600 143.800 224.000 143.800 L 222.400 143.800 222.400 150.000 L 222.400 156.200 224.000 156.200 L 225.600 156.200 225.600 157.600 L 225.600 159.000 220.600 159.000 L 215.600 159.000 215.600 157.600 L 215.600 156.200 217.200 156.200 L 218.800 156.200 218.800 150.000 L 218.800 143.800 217.200 143.800 L 215.600 143.800 215.600 142.400 L 215.600 141.000 220.600 141.000 L 225.600 141.000 225.600 142.400 M286.489 142.166 C 284.133 143.318,283.891 143.563,283.936 144.741 C 283.992 146.184,284.167 146.275,286.588 146.127 C 289.159 145.970,289.026 146.117,288.957 143.499 C 288.888 140.892,288.986 140.945,286.489 142.166 M79.113 143.992 C 72.874 146.505,75.095 157.024,81.720 156.340 C 88.909 155.598,88.720 144.024,81.513 143.665 C 80.443 143.611,79.861 143.691,79.113 143.992 M335.147 149.667 C 340.596 152.531,338.643 160.500,332.500 160.466 C 326.331 160.432,324.537 152.354,330.100 149.663 C 331.316 149.075,334.025 149.077,335.147 149.667 M288.339 152.224 C 291.024 153.503,292.245 156.731,291.058 159.415 C 288.573 165.033,279.959 163.398,279.918 157.300 C 279.888 152.851,284.199 150.253,288.339 152.224 M252.564 155.250 C 252.518 155.572,252.344 155.718,251.950 155.763 C 251.402 155.826,251.400 155.831,251.400 157.413 C 251.400 158.972,251.391 159.000,250.900 159.000 C 250.408 159.000,250.400 158.973,250.400 157.400 L 250.400 155.800 249.800 155.800 C 249.293 155.800,249.200 155.722,249.200 155.300 C 249.200 154.806,249.219 154.800,250.914 154.800 C 252.577 154.800,252.626 154.813,252.564 155.250 M254.499 155.650 C 254.688 156.118,254.929 156.725,255.035 157.000 C 255.217 157.470,255.260 157.423,255.770 156.200 C 256.265 155.014,256.365 154.900,256.906 154.900 L 257.500 154.900 257.500 156.900 C 257.500 158.822,257.482 158.902,257.050 158.964 C 256.629 159.024,256.599 158.952,256.582 157.864 L 256.563 156.700 256.051 157.850 C 255.393 159.326,255.009 159.351,254.490 157.950 L 254.100 156.900 254.040 157.950 C 253.984 158.914,253.939 159.000,253.490 159.000 C 253.001 159.000,253.000 158.995,253.000 156.900 L 253.000 154.800 253.578 154.800 C 254.071 154.800,254.207 154.925,254.499 155.650 " stroke="none" fill="#fcfcfb" fill-rule="evenodd"></path><path id="path1" d="M301.300 137.319 C 300.860 137.361,299.510 137.491,298.300 137.607 C 292.094 138.199,286.073 140.198,278.478 144.187 C 276.476 145.238,271.992 146.400,269.939 146.400 C 268.954 146.400,268.774 152.361,269.758 152.421 C 269.946 152.433,269.752 152.550,269.326 152.682 C 267.176 153.348,267.639 157.674,269.900 158.049 C 270.230 158.104,271.040 158.292,271.700 158.467 C 272.360 158.643,274.070 158.879,275.500 158.993 C 276.930 159.107,278.348 159.256,278.650 159.323 L 279.200 159.447 279.202 158.173 C 279.220 148.912,291.714 148.408,292.164 157.650 C 292.211 158.613,292.281 159.400,292.319 159.400 C 292.358 159.400,292.774 159.226,293.245 159.013 C 294.049 158.648,319.287 157.179,324.450 157.196 L 325.800 157.200 325.800 155.704 C 325.800 151.356,328.450 148.511,332.500 148.511 C 336.449 148.511,338.818 150.928,339.302 155.453 L 339.447 156.800 340.573 156.794 C 343.558 156.777,346.587 156.074,347.384 155.211 C 348.788 153.692,349.200 150.559,348.114 149.663 C 347.736 149.352,347.143 148.705,346.795 148.225 C 346.448 147.746,345.992 147.308,345.782 147.253 C 345.572 147.198,345.400 147.076,345.400 146.981 C 345.400 145.786,337.222 144.402,330.154 144.400 L 327.807 144.400 326.498 143.599 C 318.145 138.486,310.048 136.468,301.300 137.319 M311.710 138.669 C 315.099 139.411,323.400 143.902,323.400 144.994 C 323.400 145.247,320.043 145.384,312.400 145.445 L 305.500 145.500 304.563 142.300 C 304.047 140.540,303.620 138.885,303.613 138.622 L 303.600 138.145 306.950 138.253 C 308.793 138.312,310.935 138.500,311.710 138.669 M303.058 141.935 C 303.354 143.880,303.564 145.503,303.525 145.542 C 303.392 145.675,290.626 146.053,290.313 145.933 C 290.051 145.832,290.000 145.385,290.000 143.201 L 290.000 140.590 290.550 140.375 C 292.789 139.498,298.394 138.460,301.110 138.421 L 302.519 138.400 303.058 141.935 M262.423 139.073 C 261.340 140.377,261.600 161.063,262.700 161.094 C 263.284 161.111,263.378 159.594,263.389 149.944 C 263.401 139.407,263.279 138.040,262.423 139.073 M57.500 141.080 C 50.022 143.452,48.872 154.386,55.715 158.044 C 59.279 159.949,65.415 159.401,68.350 156.915 L 69.000 156.364 69.000 152.982 L 69.000 149.600 64.800 149.600 L 60.600 149.600 60.600 150.800 L 60.600 152.000 63.200 152.000 L 65.800 152.000 65.800 153.611 L 65.800 155.222 64.750 155.701 C 59.646 158.028,54.733 155.285,54.719 150.100 C 54.702 143.703,61.496 141.043,65.825 145.751 L 66.900 146.920 67.950 146.841 L 69.000 146.761 69.000 143.981 L 69.000 141.200 67.500 141.200 L 66.000 141.200 66.000 142.000 C 66.000 142.960,66.046 142.953,64.891 142.173 C 63.020 140.910,59.622 140.408,57.500 141.080 M78.740 141.009 C 69.523 143.304,69.499 156.495,78.708 158.894 C 87.289 161.129,93.922 151.978,89.046 144.632 C 87.122 141.733,82.440 140.087,78.740 141.009 M201.700 141.080 C 192.745 143.920,193.366 157.104,202.544 159.009 C 205.499 159.622,209.546 158.889,211.926 157.309 L 213.000 156.596 213.000 153.098 L 213.000 149.600 208.900 149.600 L 204.800 149.600 204.800 150.800 L 204.800 152.000 207.400 152.000 L 210.000 152.000 210.000 153.585 L 210.000 155.171 208.924 155.680 C 202.677 158.635,196.587 153.060,199.426 146.983 C 201.550 142.436,208.188 142.233,210.718 146.639 C 210.861 146.887,211.127 146.933,211.950 146.852 L 213.000 146.749 213.000 143.975 L 213.000 141.200 211.600 141.200 L 210.200 141.200 210.200 142.000 C 210.200 142.964,210.307 142.956,208.874 142.093 C 206.792 140.839,203.795 140.416,201.700 141.080 M233.700 141.080 C 226.038 143.510,225.029 154.593,232.144 158.177 C 235.554 159.894,241.334 159.376,244.340 157.083 L 245.000 156.580 245.000 153.090 L 245.000 149.600 240.900 149.600 L 236.800 149.600 236.800 150.800 L 236.800 152.000 239.400 152.000 L 242.000 152.000 242.000 153.585 L 242.000 155.171 240.950 155.678 C 235.341 158.391,229.878 154.445,231.001 148.492 C 232.002 143.191,238.260 141.651,242.044 145.774 C 243.085 146.910,243.113 146.924,244.050 146.843 L 245.000 146.760 245.000 143.980 L 245.000 141.200 243.600 141.200 L 242.200 141.200 242.200 142.000 C 242.200 142.956,242.199 142.956,241.119 142.213 C 239.239 140.919,235.843 140.401,233.700 141.080 M289.000 143.618 C 289.000 145.358,288.932 146.034,288.750 146.091 C 287.748 146.407,284.524 146.324,284.174 145.974 C 283.763 145.563,283.662 144.231,283.995 143.609 C 284.332 142.980,288.443 140.879,288.847 141.129 C 288.931 141.181,289.000 142.301,289.000 143.618 M99.800 142.491 L 99.800 143.782 101.121 143.841 L 102.442 143.900 105.200 151.500 L 107.958 159.100 108.845 159.160 L 109.733 159.219 112.207 153.216 C 113.567 149.915,114.730 147.263,114.790 147.323 C 114.851 147.384,116.070 150.058,117.500 153.266 L 120.100 159.100 121.000 159.158 L 121.900 159.216 124.278 152.558 C 125.587 148.896,126.831 145.428,127.043 144.850 L 127.429 143.800 128.814 143.800 L 130.200 143.800 130.200 142.500 L 130.200 141.200 125.800 141.200 L 121.400 141.200 121.400 142.500 L 121.400 143.800 122.821 143.800 C 124.080 143.800,124.228 143.839,124.112 144.142 C 124.039 144.330,123.357 146.502,122.596 148.969 C 121.835 151.436,121.166 153.500,121.111 153.556 C 120.996 153.671,121.009 153.702,118.091 146.650 L 115.918 141.400 114.989 141.400 L 114.060 141.400 111.694 147.504 C 110.392 150.861,109.262 153.538,109.181 153.454 C 109.101 153.369,108.385 151.275,107.589 148.800 C 106.794 146.325,106.102 144.188,106.050 144.050 C 105.981 143.865,106.325 143.800,107.379 143.800 L 108.800 143.800 108.800 142.500 L 108.800 141.200 104.300 141.200 L 99.800 141.200 99.800 142.491 M131.200 142.500 L 131.200 143.800 132.800 143.800 L 134.400 143.800 134.400 150.000 L 134.400 156.200 132.800 156.200 L 131.200 156.200 131.200 157.500 L 131.200 158.800 136.000 158.800 L 140.800 158.800 140.800 157.500 L 140.800 156.200 139.300 156.200 L 137.800 156.200 137.800 150.000 L 137.800 143.800 139.300 143.800 L 140.800 143.800 140.800 142.500 L 140.800 141.200 136.000 141.200 L 131.200 141.200 131.200 142.500 M142.600 144.300 L 142.600 147.400 144.100 147.400 L 145.600 147.400 145.600 145.600 L 145.600 143.800 148.000 143.800 L 150.400 143.800 150.400 150.000 L 150.400 156.200 148.800 156.200 L 147.200 156.200 147.200 157.500 L 147.200 158.800 152.000 158.800 L 156.800 158.800 156.800 157.500 L 156.800 156.200 155.300 156.200 L 153.800 156.200 153.800 150.000 L 153.800 143.800 156.100 143.800 L 158.400 143.800 158.400 145.600 L 158.400 147.400 159.900 147.400 L 161.400 147.400 161.400 144.300 L 161.400 141.200 152.000 141.200 L 142.600 141.200 142.600 144.300 M163.200 142.500 L 163.200 143.800 164.800 143.800 L 166.400 143.800 166.400 150.000 L 166.400 156.200 164.800 156.200 L 163.200 156.200 163.200 157.500 L 163.200 158.800 168.000 158.800 L 172.800 158.800 172.800 157.500 L 172.800 156.200 171.194 156.200 L 169.588 156.200 169.644 153.650 L 169.700 151.100 174.300 151.100 L 178.900 151.100 178.956 153.650 L 179.012 156.200 177.406 156.200 L 175.800 156.200 175.800 157.500 L 175.800 158.800 180.600 158.800 L 185.400 158.800 185.400 157.500 L 185.400 156.200 183.900 156.200 L 182.400 156.200 182.400 150.000 L 182.400 143.800 183.900 143.800 L 185.400 143.800 185.400 142.500 L 185.400 141.200 180.600 141.200 L 175.800 141.200 175.800 142.500 L 175.800 143.800 177.400 143.800 L 179.000 143.800 179.000 146.204 L 179.000 148.607 174.350 148.554 L 169.700 148.500 169.644 146.150 L 169.587 143.800 171.194 143.800 L 172.800 143.800 172.800 142.500 L 172.800 141.200 168.000 141.200 L 163.200 141.200 163.200 142.500 M215.800 142.500 L 215.800 143.800 217.400 143.800 L 219.000 143.800 219.000 150.000 L 219.000 156.200 217.400 156.200 L 215.800 156.200 215.800 157.500 L 215.800 158.800 220.600 158.800 L 225.400 158.800 225.400 157.500 L 225.400 156.200 223.800 156.200 L 222.200 156.200 222.200 150.000 L 222.200 143.800 223.800 143.800 L 225.400 143.800 225.400 142.500 L 225.400 141.200 220.600 141.200 L 215.800 141.200 215.800 142.500 M83.650 143.945 C 85.612 144.725,87.092 147.328,87.092 150.000 C 87.092 157.882,76.628 158.922,75.379 151.165 C 74.547 145.999,79.011 142.103,83.650 143.945 M330.641 149.567 C 324.937 151.603,325.971 159.800,332.000 160.347 C 338.216 160.910,340.649 152.688,335.104 149.855 C 333.765 149.172,332.057 149.061,330.641 149.567 M284.200 151.775 C 279.779 153.231,278.525 158.317,281.850 161.307 C 286.493 165.482,293.539 160.202,290.727 154.654 C 289.621 152.471,286.400 151.051,284.200 151.775 M249.200 155.300 C 249.200 155.500,249.400 155.600,249.800 155.600 L 250.400 155.600 250.400 157.200 C 250.400 158.667,250.433 158.800,250.800 158.800 C 251.167 158.800,251.200 158.667,251.200 157.200 L 251.200 155.600 251.800 155.600 C 252.200 155.600,252.400 155.500,252.400 155.300 C 252.400 155.058,252.089 155.000,250.800 155.000 C 249.511 155.000,249.200 155.058,249.200 155.300 M253.200 156.900 C 253.200 158.456,253.254 158.800,253.500 158.800 C 253.734 158.800,253.800 158.530,253.800 157.567 C 253.800 156.170,253.914 156.186,254.507 157.661 C 255.093 159.119,255.439 159.095,256.022 157.559 L 256.500 156.300 256.560 157.550 C 256.611 158.636,256.670 158.800,257.010 158.800 C 257.370 158.800,257.400 158.651,257.400 156.887 L 257.400 154.973 256.857 155.037 C 256.396 155.091,256.241 155.287,255.828 156.344 C 255.259 157.800,255.196 157.793,254.602 156.204 C 253.819 154.111,253.200 154.418,253.200 156.900 " stroke="none" fill="#fcbc45" fill-rule="evenodd"></path><path id="path2" d="M301.050 137.338 C 301.243 137.388,301.558 137.388,301.750 137.338 C 301.943 137.288,301.785 137.246,301.400 137.246 C 301.015 137.246,300.858 137.288,301.050 137.338 M290.087 140.661 C 290.032 140.805,290.013 142.042,290.045 143.411 L 290.102 145.900 290.201 143.150 C 290.299 140.439,290.285 140.145,290.087 140.661 M59.550 140.741 C 59.798 140.789,60.203 140.789,60.450 140.741 C 60.698 140.693,60.495 140.654,60.000 140.654 C 59.505 140.654,59.303 140.693,59.550 140.741 M80.853 140.744 C 81.157 140.789,81.607 140.788,81.853 140.741 C 82.099 140.693,81.850 140.656,81.300 140.657 C 80.750 140.659,80.549 140.698,80.853 140.744 M203.750 140.741 C 203.998 140.789,204.403 140.789,204.650 140.741 C 204.898 140.693,204.695 140.654,204.200 140.654 C 203.705 140.654,203.503 140.693,203.750 140.741 M235.750 140.741 C 235.998 140.789,236.403 140.789,236.650 140.741 C 236.898 140.693,236.695 140.654,236.200 140.654 C 235.705 140.654,235.503 140.693,235.750 140.741 M66.755 141.147 C 67.226 141.189,67.946 141.188,68.355 141.145 C 68.765 141.102,68.380 141.068,67.500 141.069 C 66.620 141.069,66.285 141.104,66.755 141.147 M99.639 142.450 L 99.678 143.900 99.748 142.554 L 99.818 141.207 104.359 141.150 L 108.900 141.092 104.250 141.046 L 99.600 141.000 99.639 142.450 M121.239 142.450 L 121.278 143.900 121.348 142.554 L 121.418 141.208 125.859 141.150 L 130.300 141.092 125.750 141.046 L 121.200 141.000 121.239 142.450 M135.941 141.150 L 140.782 141.207 140.852 142.554 L 140.922 143.900 140.961 142.450 L 141.000 141.000 136.050 141.046 L 131.100 141.093 135.941 141.150 M147.250 141.150 C 149.863 141.181,154.138 141.181,156.750 141.150 C 159.363 141.118,157.225 141.092,152.000 141.092 C 146.775 141.092,144.638 141.118,147.250 141.150 M165.550 141.149 C 166.898 141.184,169.103 141.184,170.450 141.149 C 171.798 141.115,170.695 141.086,168.000 141.086 C 165.305 141.086,164.203 141.115,165.550 141.149 M180.541 141.150 L 185.382 141.207 185.452 142.554 L 185.522 143.900 185.561 142.450 L 185.600 141.000 180.650 141.046 L 175.700 141.093 180.541 141.150 M210.035 141.942 L 210.070 142.900 210.146 142.050 L 210.223 141.200 211.606 141.200 L 212.989 141.200 213.053 143.950 L 213.116 146.700 213.108 143.900 L 213.100 141.100 211.550 141.042 L 210.000 140.983 210.035 141.942 M220.591 141.148 L 225.382 141.207 225.456 142.504 L 225.530 143.802 225.515 142.451 L 225.500 141.100 220.650 141.095 L 215.800 141.089 220.591 141.148 M242.080 141.281 C 242.020 141.435,242.009 141.863,242.054 142.231 C 242.128 142.834,242.139 142.817,242.168 142.050 L 242.200 141.200 243.595 141.200 L 244.989 141.200 245.050 144.050 L 245.112 146.900 245.156 143.950 L 245.200 141.000 243.694 141.000 C 242.585 141.000,242.159 141.074,242.080 141.281 M263.492 150.000 C 263.492 155.005,263.518 157.053,263.550 154.550 C 263.582 152.048,263.582 147.953,263.550 145.450 C 263.518 142.948,263.492 144.995,263.492 150.000 M74.287 143.450 L 73.700 144.100 74.350 143.513 C 74.956 142.965,75.092 142.800,74.937 142.800 C 74.903 142.800,74.610 143.093,74.287 143.450 M134.289 150.000 C 134.289 153.465,134.316 154.883,134.350 153.150 C 134.383 151.417,134.383 148.583,134.350 146.850 C 134.316 145.118,134.289 146.535,134.289 150.000 M150.289 150.000 C 150.289 153.465,150.316 154.883,150.350 153.150 C 150.383 151.417,150.383 148.583,150.350 146.850 C 150.316 145.118,150.289 146.535,150.289 150.000 M166.289 150.000 C 166.289 153.465,166.316 154.883,166.350 153.150 C 166.383 151.417,166.383 148.583,166.350 146.850 C 166.316 145.118,166.289 146.535,166.289 150.000 M169.676 146.100 C 169.677 147.420,169.709 147.934,169.748 147.242 C 169.787 146.550,169.787 145.470,169.748 144.842 C 169.708 144.214,169.676 144.780,169.676 146.100 M218.889 150.000 C 218.889 153.465,218.916 154.883,218.950 153.150 C 218.983 151.417,218.983 148.583,218.950 146.850 C 218.916 145.118,218.889 146.535,218.889 150.000 M222.289 150.000 C 222.289 153.465,222.316 154.883,222.350 153.150 C 222.383 151.417,222.383 148.583,222.350 146.850 C 222.316 145.118,222.289 146.535,222.289 150.000 M329.050 144.346 C 329.463 144.389,330.138 144.389,330.550 144.346 C 330.963 144.303,330.625 144.267,329.800 144.267 C 328.975 144.267,328.638 144.303,329.050 144.346 M333.850 144.538 C 334.043 144.588,334.358 144.588,334.550 144.538 C 334.743 144.488,334.585 144.446,334.200 144.446 C 333.815 144.446,333.658 144.488,333.850 144.538 M305.576 145.456 C 305.662 145.542,306.850 145.587,308.216 145.556 L 310.700 145.498 308.059 145.399 C 306.607 145.345,305.489 145.370,305.576 145.456 M318.557 145.348 C 319.138 145.388,320.038 145.388,320.557 145.347 C 321.076 145.306,320.600 145.273,319.500 145.273 C 318.400 145.274,317.976 145.307,318.557 145.348 M299.350 145.745 C 299.707 145.789,300.293 145.789,300.650 145.745 C 301.007 145.700,300.715 145.664,300.000 145.664 C 299.285 145.664,298.993 145.700,299.350 145.745 M293.450 145.943 C 293.752 145.989,294.248 145.989,294.550 145.943 C 294.853 145.897,294.605 145.860,294.000 145.860 C 293.395 145.860,293.147 145.897,293.450 145.943 M332.053 148.544 C 332.357 148.589,332.807 148.588,333.053 148.541 C 333.299 148.493,333.050 148.456,332.500 148.457 C 331.950 148.459,331.749 148.498,332.053 148.544 M87.060 150.000 C 87.060 150.605,87.097 150.853,87.143 150.550 C 87.189 150.248,87.189 149.753,87.143 149.450 C 87.097 149.148,87.060 149.395,87.060 150.000 M227.260 150.000 C 227.260 150.605,227.297 150.853,227.343 150.550 C 227.389 150.248,227.389 149.753,227.343 149.450 C 227.297 149.148,227.260 149.395,227.260 150.000 M230.860 150.000 C 230.860 150.605,230.897 150.853,230.943 150.550 C 230.989 150.248,230.989 149.753,230.943 149.450 C 230.897 149.148,230.860 149.395,230.860 150.000 M51.054 150.000 C 51.054 150.495,51.093 150.697,51.141 150.450 C 51.189 150.203,51.189 149.797,51.141 149.550 C 51.093 149.303,51.054 149.505,51.054 150.000 M54.654 150.000 C 54.654 150.495,54.693 150.697,54.741 150.450 C 54.789 150.203,54.789 149.797,54.741 149.550 C 54.693 149.303,54.654 149.505,54.654 150.000 M75.246 150.000 C 75.246 150.385,75.288 150.542,75.338 150.350 C 75.388 150.157,75.388 149.843,75.338 149.650 C 75.288 149.458,75.246 149.615,75.246 150.000 M213.000 153.140 C 212.945 155.143,212.970 156.711,213.055 156.626 C 213.140 156.540,213.185 154.902,213.154 152.985 L 213.099 149.500 213.000 153.140 M245.000 153.140 C 244.945 155.143,244.970 156.711,245.055 156.626 C 245.140 156.540,245.185 154.902,245.154 152.985 L 245.099 149.500 245.000 153.140 M169.687 151.262 C 169.632 151.406,169.615 152.598,169.650 153.912 L 169.714 156.300 169.757 153.754 L 169.800 151.208 174.350 151.150 L 178.900 151.092 174.344 151.046 C 170.742 151.010,169.766 151.055,169.687 151.262 M61.850 152.148 C 62.593 152.187,63.808 152.187,64.550 152.148 C 65.293 152.110,64.685 152.078,63.200 152.078 C 61.715 152.078,61.108 152.110,61.850 152.148 M206.050 152.148 C 206.793 152.187,208.007 152.187,208.750 152.148 C 209.493 152.110,208.885 152.078,207.400 152.078 C 205.915 152.078,205.308 152.110,206.050 152.148 M238.050 152.148 C 238.793 152.187,240.007 152.187,240.750 152.148 C 241.493 152.110,240.885 152.078,239.400 152.078 C 237.915 152.078,237.308 152.110,238.050 152.148 M338.254 154.800 C 338.254 155.295,338.293 155.498,338.341 155.250 C 338.389 155.003,338.389 154.597,338.341 154.350 C 338.293 154.103,338.254 154.305,338.254 154.800 M267.850 154.900 C 267.853 155.340,267.894 155.496,267.941 155.248 C 267.989 154.999,267.987 154.639,267.937 154.448 C 267.887 154.256,267.848 154.460,267.850 154.900 M250.886 154.945 C 251.814 154.989,252.405 155.107,252.456 155.258 C 252.501 155.391,252.529 155.365,252.517 155.200 C 252.500 154.962,252.174 154.897,250.947 154.886 L 249.399 154.873 250.886 154.945 M253.133 154.933 C 252.712 155.354,253.001 159.028,253.450 158.964 C 253.909 158.899,254.350 156.717,253.954 156.471 C 253.869 156.419,253.800 156.922,253.800 157.588 C 253.800 158.532,253.734 158.800,253.500 158.800 C 252.930 158.800,253.075 155.052,253.650 154.941 C 254.067 154.861,254.070 154.852,253.683 154.827 C 253.454 154.812,253.207 154.860,253.133 154.933 M256.322 154.964 C 256.267 155.054,256.486 155.089,256.811 155.041 C 257.135 154.994,257.400 154.920,257.400 154.877 C 257.400 154.725,256.421 154.803,256.322 154.964 M251.240 157.136 C 251.203 158.659,251.169 158.778,250.750 158.859 L 250.300 158.946 250.756 158.973 C 251.355 159.009,251.432 158.749,251.349 156.981 L 251.279 155.500 251.240 157.136 M140.800 157.496 L 140.800 158.793 135.950 158.850 L 131.100 158.907 136.050 158.954 L 141.000 159.000 141.000 157.600 C 141.000 156.830,140.955 156.200,140.900 156.200 C 140.845 156.200,140.800 156.783,140.800 157.496 M156.838 157.446 L 156.800 158.793 151.950 158.850 L 147.100 158.907 151.956 158.954 C 157.446 159.006,157.064 159.134,156.949 157.278 L 156.876 156.100 156.838 157.446 M185.400 157.496 L 185.400 158.793 180.550 158.850 L 175.700 158.907 180.650 158.954 L 185.600 159.000 185.600 157.600 C 185.600 156.830,185.555 156.200,185.500 156.200 C 185.445 156.200,185.400 156.783,185.400 157.496 M225.438 157.446 L 225.400 158.793 220.550 158.850 L 215.700 158.907 220.556 158.954 C 226.046 159.006,225.664 159.134,225.549 157.278 L 225.476 156.100 225.438 157.446 M60.650 156.538 C 60.843 156.588,61.158 156.588,61.350 156.538 C 61.542 156.488,61.385 156.446,61.000 156.446 C 60.615 156.446,60.458 156.488,60.650 156.538 M204.752 156.541 C 205.001 156.589,205.361 156.587,205.552 156.537 C 205.744 156.487,205.540 156.448,205.100 156.450 C 204.660 156.453,204.504 156.494,204.752 156.541 M236.850 156.538 C 237.043 156.588,237.357 156.588,237.550 156.538 C 237.743 156.488,237.585 156.446,237.200 156.446 C 236.815 156.446,236.657 156.488,236.850 156.538 M321.152 157.341 C 321.401 157.389,321.761 157.387,321.952 157.337 C 322.144 157.287,321.940 157.248,321.500 157.250 C 321.060 157.253,320.904 157.294,321.152 157.341 M324.850 157.338 C 325.043 157.388,325.358 157.388,325.550 157.338 C 325.743 157.288,325.585 157.246,325.200 157.246 C 324.815 157.246,324.658 157.288,324.850 157.338 M317.352 157.541 C 317.601 157.589,317.961 157.587,318.152 157.537 C 318.344 157.487,318.140 157.448,317.700 157.450 C 317.260 157.453,317.104 157.494,317.352 157.541 M313.352 157.741 C 313.601 157.789,313.961 157.787,314.152 157.737 C 314.344 157.687,314.140 157.648,313.700 157.650 C 313.260 157.653,313.104 157.694,313.352 157.741 M309.552 157.941 C 309.801 157.989,310.161 157.987,310.352 157.937 C 310.544 157.887,310.340 157.848,309.900 157.850 C 309.460 157.853,309.304 157.894,309.552 157.941 M305.552 158.141 C 305.801 158.189,306.161 158.187,306.352 158.137 C 306.544 158.087,306.340 158.048,305.900 158.050 C 305.460 158.053,305.304 158.094,305.552 158.141 M301.752 158.341 C 302.001 158.389,302.361 158.387,302.552 158.337 C 302.744 158.287,302.540 158.248,302.100 158.250 C 301.660 158.253,301.504 158.294,301.752 158.341 M336.487 158.850 L 335.900 159.500 336.550 158.913 C 337.156 158.365,337.292 158.200,337.137 158.200 C 337.103 158.200,336.810 158.493,336.487 158.850 M297.752 158.541 C 298.001 158.589,298.361 158.587,298.552 158.537 C 298.744 158.487,298.540 158.448,298.100 158.450 C 297.660 158.453,297.504 158.494,297.752 158.541 M294.050 158.738 C 294.243 158.788,294.558 158.788,294.750 158.738 C 294.943 158.688,294.785 158.646,294.400 158.646 C 294.015 158.646,293.858 158.688,294.050 158.738 M165.550 158.949 C 166.898 158.984,169.103 158.984,170.450 158.949 C 171.798 158.915,170.695 158.886,168.000 158.886 C 165.305 158.886,164.203 158.915,165.550 158.949 M107.983 159.263 C 108.073 159.353,108.497 159.397,108.924 159.359 L 109.700 159.292 108.759 159.195 C 108.242 159.142,107.893 159.173,107.983 159.263 M120.183 159.263 C 120.273 159.353,120.697 159.397,121.124 159.359 L 121.900 159.292 120.959 159.195 C 120.442 159.142,120.093 159.173,120.183 159.263 M60.453 159.344 C 60.757 159.389,61.207 159.388,61.453 159.341 C 61.699 159.293,61.450 159.256,60.900 159.257 C 60.350 159.259,60.149 159.298,60.453 159.344 M204.453 159.344 C 204.757 159.389,205.207 159.388,205.453 159.341 C 205.699 159.293,205.450 159.256,204.900 159.257 C 204.350 159.259,204.149 159.298,204.453 159.344 M236.550 159.341 C 236.798 159.389,237.203 159.389,237.450 159.341 C 237.697 159.293,237.495 159.254,237.000 159.254 C 236.505 159.254,236.303 159.293,236.550 159.341 " stroke="none" fill="#fce1ae" fill-rule="evenodd"></path><path id="path3" d="M65.857 141.900 C 65.859 142.450,65.898 142.651,65.944 142.347 C 65.989 142.043,65.988 141.593,65.941 141.347 C 65.893 141.101,65.856 141.350,65.857 141.900 M172.867 142.400 C 172.867 143.225,172.903 143.563,172.946 143.150 C 172.989 142.738,172.989 142.063,172.946 141.650 C 172.903 141.238,172.867 141.575,172.867 142.400 M215.667 142.400 C 215.667 143.225,215.703 143.563,215.746 143.150 C 215.789 142.738,215.789 142.063,215.746 141.650 C 215.703 141.238,215.667 141.575,215.667 142.400 M163.066 142.500 C 163.067 143.270,163.103 143.560,163.146 143.146 C 163.189 142.731,163.189 142.101,163.144 141.746 C 163.100 141.390,163.065 141.730,163.066 142.500 M145.672 145.600 C 145.672 146.645,145.706 147.072,145.747 146.550 C 145.788 146.028,145.788 145.172,145.747 144.650 C 145.706 144.128,145.672 144.555,145.672 145.600 M158.272 145.600 C 158.272 146.645,158.306 147.072,158.347 146.550 C 158.388 146.028,158.388 145.172,158.347 144.650 C 158.306 144.128,158.272 144.555,158.272 145.600 M178.842 146.046 L 178.800 148.392 174.250 148.450 L 169.700 148.508 174.256 148.554 C 177.869 148.590,178.833 148.546,178.913 148.337 C 178.969 148.193,178.985 147.090,178.950 145.887 L 178.885 143.700 178.842 146.046 M316.552 145.341 C 316.801 145.389,317.161 145.387,317.352 145.337 C 317.544 145.287,317.340 145.248,316.900 145.250 C 316.460 145.253,316.304 145.294,316.552 145.341 M62.650 149.549 C 63.833 149.585,65.767 149.585,66.950 149.549 C 68.133 149.514,67.165 149.485,64.800 149.485 C 62.435 149.485,61.468 149.514,62.650 149.549 M204.682 149.674 C 204.625 149.824,204.611 150.432,204.652 151.024 L 204.726 152.100 204.763 150.854 L 204.800 149.608 208.950 149.550 L 213.100 149.491 208.944 149.446 C 205.579 149.409,204.767 149.452,204.682 149.674 M238.850 149.549 C 240.032 149.585,241.968 149.585,243.150 149.549 C 244.332 149.514,243.365 149.485,241.000 149.485 C 238.635 149.485,237.668 149.514,238.850 149.549 M178.878 153.700 C 178.878 155.130,178.910 155.689,178.948 154.942 C 178.987 154.195,178.987 153.025,178.948 152.342 C 178.909 151.659,178.877 152.270,178.878 153.700 M163.066 157.500 C 163.067 158.270,163.103 158.560,163.146 158.146 C 163.189 157.731,163.189 157.101,163.144 156.746 C 163.100 156.390,163.065 156.730,163.066 157.500 M172.867 157.600 C 172.867 158.425,172.903 158.763,172.946 158.350 C 172.989 157.938,172.989 157.263,172.946 156.850 C 172.903 156.438,172.867 156.775,172.867 157.600 M215.667 157.600 C 215.667 158.425,215.703 158.763,215.746 158.350 C 215.789 157.938,215.789 157.263,215.746 156.850 C 215.703 156.438,215.667 156.775,215.667 157.600 " stroke="none" fill="#fceccf" fill-rule="evenodd"></path><path id="path4" d="M131.067 142.400 C 131.067 143.225,131.103 143.563,131.146 143.150 C 131.189 142.738,131.189 142.063,131.146 141.650 C 131.103 141.238,131.067 141.575,131.067 142.400 M108.866 142.500 C 108.867 143.270,108.903 143.560,108.946 143.146 C 108.989 142.731,108.989 142.101,108.944 141.746 C 108.900 141.390,108.865 141.730,108.866 142.500 M315.152 145.341 C 315.401 145.389,315.761 145.387,315.952 145.337 C 316.144 145.287,315.940 145.248,315.500 145.250 C 315.060 145.253,314.904 145.294,315.152 145.341 M143.355 147.547 C 143.826 147.589,144.546 147.588,144.955 147.545 C 145.365 147.502,144.980 147.468,144.100 147.469 C 143.220 147.469,142.885 147.504,143.355 147.547 M159.155 147.547 C 159.626 147.589,160.346 147.588,160.755 147.545 C 161.165 147.502,160.780 147.468,159.900 147.469 C 159.020 147.469,158.685 147.504,159.155 147.547 M236.664 150.800 C 236.664 151.515,236.700 151.808,236.745 151.450 C 236.789 151.093,236.789 150.508,236.745 150.150 C 236.700 149.792,236.664 150.085,236.664 150.800 M257.473 156.900 C 257.474 158.000,257.507 158.424,257.548 157.843 C 257.588 157.262,257.588 156.362,257.547 155.843 C 257.506 155.324,257.473 155.800,257.473 156.900 M249.450 155.738 C 249.643 155.788,249.957 155.788,250.150 155.738 C 250.343 155.688,250.185 155.646,249.800 155.646 C 249.415 155.646,249.257 155.688,249.450 155.738 M131.067 157.600 C 131.067 158.425,131.103 158.763,131.146 158.350 C 131.189 157.938,131.189 157.263,131.146 156.850 C 131.103 156.438,131.067 156.775,131.067 157.600 M147.067 157.600 C 147.067 158.425,147.103 158.763,147.146 158.350 C 147.189 157.938,147.189 157.263,147.146 156.850 C 147.103 156.438,147.067 156.775,147.067 157.600 " stroke="none" fill="#fcf4da" fill-rule="evenodd"></path></g></svg>